<svg xmlns="http://www.w3.org/2000/svg" viewBox="0 0 1080 1080" width="1080" height="1080">
<defs>
  <radialGradient id="bg" cx="42%" cy="38%" r="72%">
    <stop offset="0%" stop-color="#2f74f5"/>
    <stop offset="48%" stop-color="#1648d2"/>
    <stop offset="100%" stop-color="#0a2596"/>
  </radialGradient>
  <radialGradient id="spec" cx="38%" cy="30%" r="45%">
    <stop offset="0%" stop-color="#bcd8ff" stop-opacity="0.55"/>
    <stop offset="60%" stop-color="#bcd8ff" stop-opacity="0.08"/>
    <stop offset="100%" stop-color="#bcd8ff" stop-opacity="0"/>
  </radialGradient>
  <radialGradient id="padglow" cx="50%" cy="50%" r="50%">
    <stop offset="0%" stop-color="#ffffff" stop-opacity="1"/>
    <stop offset="100%" stop-color="#bfe6ff" stop-opacity="0"/>
  </radialGradient>
  <clipPath id="circ"><circle cx="540" cy="540" r="528"/></clipPath>
</defs>
<g clip-path="url(#circ)">
<circle cx="540" cy="540" r="528" fill="url(#bg)"/>
<circle cx="540" cy="540" r="528" fill="url(#spec)"/>
<g><path d="M 80 120 L 170 120 L 260 120 L 330 120 L 400 120 L 400 80 L 510 80 L 510 40 L 600 40 L 600 0 L 670 0 L 740 0 L 810 0 L 920 0 L 990 0 L 1080 0 L 1080 -40" fill="none" stroke="#7fb4ff" stroke-width="3" stroke-opacity="0.08" stroke-linecap="round" stroke-linejoin="round"/>
<path d="M 80 215 L 150 215 L 220 215 L 220 175 L 330 175 L 330 215 L 440 215 L 510 215 L 510 175 L 600 175 L 600 135 L 710 135 L 710 95 L 800 95 L 890 95 L 980 95 L 1070 95 L 1070 55" fill="none" stroke="#7fb4ff" stroke-width="3" stroke-opacity="0.08" stroke-linecap="round" stroke-linejoin="round"/>
<path d="M 80 310 L 150 310 L 220 310 L 220 350 L 330 350 L 330 390 L 440 390 L 440 350 L 510 350 L 580 350 L 650 350 L 740 350 L 740 310 L 850 310 L 940 310 L 940 350 L 1050 350 L 1050 390" fill="none" stroke="#7fb4ff" stroke-width="3" stroke-opacity="0.08" stroke-linecap="round" stroke-linejoin="round"/>
<path d="M 80 405 L 150 405 L 240 405 L 240 365 L 310 365 L 400 365 L 510 365 L 600 365 L 710 365 L 710 405 L 800 405 L 800 365 L 890 365 L 890 405 L 960 405 L 1050 405 L 1050 445" fill="none" stroke="#7fb4ff" stroke-width="3" stroke-opacity="0.08" stroke-linecap="round" stroke-linejoin="round"/>
<path d="M 80 500 L 150 500 L 150 540 L 260 540 L 260 500 L 350 500 L 440 500 L 530 500 L 620 500 L 690 500 L 690 460 L 760 460 L 830 460 L 830 420 L 920 420 L 920 380 L 1010 380" fill="none" stroke="#7fb4ff" stroke-width="3" stroke-opacity="0.08" stroke-linecap="round" stroke-linejoin="round"/>
<path d="M 80 595 L 190 595 L 260 595 L 370 595 L 480 595 L 550 595 L 550 635 L 640 635 L 640 595 L 730 595 L 800 595 L 800 555 L 890 555 L 890 595 L 1000 595 L 1000 555" fill="none" stroke="#7fb4ff" stroke-width="3" stroke-opacity="0.08" stroke-linecap="round" stroke-linejoin="round"/>
<path d="M 80 690 L 190 690 L 190 650 L 280 650 L 350 650 L 460 650 L 460 690 L 550 690 L 640 690 L 640 730 L 730 730 L 730 770 L 800 770 L 800 810 L 910 810 L 910 770 L 1020 770 L 1020 810" fill="none" stroke="#7fb4ff" stroke-width="3" stroke-opacity="0.08" stroke-linecap="round" stroke-linejoin="round"/>
<path d="M 80 785 L 150 785 L 220 785 L 310 785 L 380 785 L 470 785 L 540 785 L 540 745 L 650 745 L 760 745 L 760 705 L 870 705 L 940 705 L 1030 705" fill="none" stroke="#7fb4ff" stroke-width="3" stroke-opacity="0.08" stroke-linecap="round" stroke-linejoin="round"/>
<path d="M 80 880 L 150 880 L 150 920 L 240 920 L 310 920 L 400 920 L 400 960 L 490 960 L 600 960 L 690 960 L 690 920 L 760 920 L 760 960 L 830 960 L 830 920 L 920 920 L 1010 920" fill="none" stroke="#7fb4ff" stroke-width="3" stroke-opacity="0.08" stroke-linecap="round" stroke-linejoin="round"/></g>
<g><path d="M 290 330 L 290 755" fill="none" stroke="#4f9dff" stroke-width="68.0" stroke-opacity="0.14" stroke-linecap="round" stroke-linejoin="round"/>
<path d="M 290 330 L 440 330 L 480 370 L 480 470 L 440 510 L 290 510" fill="none" stroke="#4f9dff" stroke-width="68.0" stroke-opacity="0.14" stroke-linecap="round" stroke-linejoin="round"/>
<path d="M 370 510 L 480 620 L 480 755" fill="none" stroke="#4f9dff" stroke-width="68.0" stroke-opacity="0.14" stroke-linecap="round" stroke-linejoin="round"/>
<path d="M 600 330 L 600 755" fill="none" stroke="#4f9dff" stroke-width="68.0" stroke-opacity="0.14" stroke-linecap="round" stroke-linejoin="round"/>
<path d="M 810 330 L 810 755" fill="none" stroke="#4f9dff" stroke-width="68.0" stroke-opacity="0.14" stroke-linecap="round" stroke-linejoin="round"/>
<path d="M 600 542 L 810 542" fill="none" stroke="#4f9dff" stroke-width="68.0" stroke-opacity="0.14" stroke-linecap="round" stroke-linejoin="round"/>
<path d="M 290 330 L 290 755" fill="none" stroke="#4f9dff" stroke-width="48.0" stroke-opacity="0.2" stroke-linecap="round" stroke-linejoin="round"/>
<path d="M 290 330 L 440 330 L 480 370 L 480 470 L 440 510 L 290 510" fill="none" stroke="#4f9dff" stroke-width="48.0" stroke-opacity="0.2" stroke-linecap="round" stroke-linejoin="round"/>
<path d="M 370 510 L 480 620 L 480 755" fill="none" stroke="#4f9dff" stroke-width="48.0" stroke-opacity="0.2" stroke-linecap="round" stroke-linejoin="round"/>
<path d="M 600 330 L 600 755" fill="none" stroke="#4f9dff" stroke-width="48.0" stroke-opacity="0.2" stroke-linecap="round" stroke-linejoin="round"/>
<path d="M 810 330 L 810 755" fill="none" stroke="#4f9dff" stroke-width="48.0" stroke-opacity="0.2" stroke-linecap="round" stroke-linejoin="round"/>
<path d="M 600 542 L 810 542" fill="none" stroke="#4f9dff" stroke-width="48.0" stroke-opacity="0.2" stroke-linecap="round" stroke-linejoin="round"/>
<path d="M 290 330 L 290 755" fill="none" stroke="#4f9dff" stroke-width="33.0" stroke-opacity="0.3" stroke-linecap="round" stroke-linejoin="round"/>
<path d="M 290 330 L 440 330 L 480 370 L 480 470 L 440 510 L 290 510" fill="none" stroke="#4f9dff" stroke-width="33.0" stroke-opacity="0.3" stroke-linecap="round" stroke-linejoin="round"/>
<path d="M 370 510 L 480 620 L 480 755" fill="none" stroke="#4f9dff" stroke-width="33.0" stroke-opacity="0.3" stroke-linecap="round" stroke-linejoin="round"/>
<path d="M 600 330 L 600 755" fill="none" stroke="#4f9dff" stroke-width="33.0" stroke-opacity="0.3" stroke-linecap="round" stroke-linejoin="round"/>
<path d="M 810 330 L 810 755" fill="none" stroke="#4f9dff" stroke-width="33.0" stroke-opacity="0.3" stroke-linecap="round" stroke-linejoin="round"/>
<path d="M 600 542 L 810 542" fill="none" stroke="#4f9dff" stroke-width="33.0" stroke-opacity="0.3" stroke-linecap="round" stroke-linejoin="round"/>
<path d="M 290 330 L 290 755" fill="none" stroke="#bfe6ff" stroke-width="21.0" stroke-opacity="0.85" stroke-linecap="round" stroke-linejoin="round"/>
<path d="M 290 330 L 440 330 L 480 370 L 480 470 L 440 510 L 290 510" fill="none" stroke="#bfe6ff" stroke-width="21.0" stroke-opacity="0.85" stroke-linecap="round" stroke-linejoin="round"/>
<path d="M 370 510 L 480 620 L 480 755" fill="none" stroke="#bfe6ff" stroke-width="21.0" stroke-opacity="0.85" stroke-linecap="round" stroke-linejoin="round"/>
<path d="M 600 330 L 600 755" fill="none" stroke="#bfe6ff" stroke-width="21.0" stroke-opacity="0.85" stroke-linecap="round" stroke-linejoin="round"/>
<path d="M 810 330 L 810 755" fill="none" stroke="#bfe6ff" stroke-width="21.0" stroke-opacity="0.85" stroke-linecap="round" stroke-linejoin="round"/>
<path d="M 600 542 L 810 542" fill="none" stroke="#bfe6ff" stroke-width="21.0" stroke-opacity="0.85" stroke-linecap="round" stroke-linejoin="round"/>
<path d="M 290 330 L 290 755" fill="none" stroke="#ffffff" stroke-width="10.5" stroke-opacity="1.0" stroke-linecap="round" stroke-linejoin="round"/>
<path d="M 290 330 L 440 330 L 480 370 L 480 470 L 440 510 L 290 510" fill="none" stroke="#ffffff" stroke-width="10.5" stroke-opacity="1.0" stroke-linecap="round" stroke-linejoin="round"/>
<path d="M 370 510 L 480 620 L 480 755" fill="none" stroke="#ffffff" stroke-width="10.5" stroke-opacity="1.0" stroke-linecap="round" stroke-linejoin="round"/>
<path d="M 600 330 L 600 755" fill="none" stroke="#ffffff" stroke-width="10.5" stroke-opacity="1.0" stroke-linecap="round" stroke-linejoin="round"/>
<path d="M 810 330 L 810 755" fill="none" stroke="#ffffff" stroke-width="10.5" stroke-opacity="1.0" stroke-linecap="round" stroke-linejoin="round"/>
<path d="M 600 542 L 810 542" fill="none" stroke="#ffffff" stroke-width="10.5" stroke-opacity="1.0" stroke-linecap="round" stroke-linejoin="round"/></g>
<g><path d="M 400 330 L 400 255 L 455 200" fill="none" stroke="#4f9dff" stroke-width="20.28" stroke-opacity="0.22" stroke-linecap="round" stroke-linejoin="round"/>
<path d="M 290 755 L 290 830" fill="none" stroke="#4f9dff" stroke-width="20.28" stroke-opacity="0.22" stroke-linecap="round" stroke-linejoin="round"/>
<path d="M 480 420 L 545 420" fill="none" stroke="#4f9dff" stroke-width="20.28" stroke-opacity="0.22" stroke-linecap="round" stroke-linejoin="round"/>
<path d="M 810 330 L 810 265 L 865 210" fill="none" stroke="#4f9dff" stroke-width="20.28" stroke-opacity="0.22" stroke-linecap="round" stroke-linejoin="round"/>
<path d="M 810 660 L 880 660" fill="none" stroke="#4f9dff" stroke-width="20.28" stroke-opacity="0.22" stroke-linecap="round" stroke-linejoin="round"/>
<path d="M 480 755 L 480 815 L 540 875" fill="none" stroke="#4f9dff" stroke-width="20.28" stroke-opacity="0.22" stroke-linecap="round" stroke-linejoin="round"/>
<path d="M 600 755 L 600 815 L 540 875" fill="none" stroke="#4f9dff" stroke-width="20.28" stroke-opacity="0.22" stroke-linecap="round" stroke-linejoin="round"/>
<path d="M 400 330 L 400 255 L 455 200" fill="none" stroke="#4f9dff" stroke-width="14.04" stroke-opacity="0.3" stroke-linecap="round" stroke-linejoin="round"/>
<path d="M 290 755 L 290 830" fill="none" stroke="#4f9dff" stroke-width="14.04" stroke-opacity="0.3" stroke-linecap="round" stroke-linejoin="round"/>
<path d="M 480 420 L 545 420" fill="none" stroke="#4f9dff" stroke-width="14.04" stroke-opacity="0.3" stroke-linecap="round" stroke-linejoin="round"/>
<path d="M 810 330 L 810 265 L 865 210" fill="none" stroke="#4f9dff" stroke-width="14.04" stroke-opacity="0.3" stroke-linecap="round" stroke-linejoin="round"/>
<path d="M 810 660 L 880 660" fill="none" stroke="#4f9dff" stroke-width="14.04" stroke-opacity="0.3" stroke-linecap="round" stroke-linejoin="round"/>
<path d="M 480 755 L 480 815 L 540 875" fill="none" stroke="#4f9dff" stroke-width="14.04" stroke-opacity="0.3" stroke-linecap="round" stroke-linejoin="round"/>
<path d="M 600 755 L 600 815 L 540 875" fill="none" stroke="#4f9dff" stroke-width="14.04" stroke-opacity="0.3" stroke-linecap="round" stroke-linejoin="round"/>
<path d="M 400 330 L 400 255 L 455 200" fill="none" stroke="#bfe6ff" stroke-width="8.58" stroke-opacity="0.85" stroke-linecap="round" stroke-linejoin="round"/>
<path d="M 290 755 L 290 830" fill="none" stroke="#bfe6ff" stroke-width="8.58" stroke-opacity="0.85" stroke-linecap="round" stroke-linejoin="round"/>
<path d="M 480 420 L 545 420" fill="none" stroke="#bfe6ff" stroke-width="8.58" stroke-opacity="0.85" stroke-linecap="round" stroke-linejoin="round"/>
<path d="M 810 330 L 810 265 L 865 210" fill="none" stroke="#bfe6ff" stroke-width="8.58" stroke-opacity="0.85" stroke-linecap="round" stroke-linejoin="round"/>
<path d="M 810 660 L 880 660" fill="none" stroke="#bfe6ff" stroke-width="8.58" stroke-opacity="0.85" stroke-linecap="round" stroke-linejoin="round"/>
<path d="M 480 755 L 480 815 L 540 875" fill="none" stroke="#bfe6ff" stroke-width="8.58" stroke-opacity="0.85" stroke-linecap="round" stroke-linejoin="round"/>
<path d="M 600 755 L 600 815 L 540 875" fill="none" stroke="#bfe6ff" stroke-width="8.58" stroke-opacity="0.85" stroke-linecap="round" stroke-linejoin="round"/>
<path d="M 400 330 L 400 255 L 455 200" fill="none" stroke="#ffffff" stroke-width="4.29" stroke-opacity="1.0" stroke-linecap="round" stroke-linejoin="round"/>
<path d="M 290 755 L 290 830" fill="none" stroke="#ffffff" stroke-width="4.29" stroke-opacity="1.0" stroke-linecap="round" stroke-linejoin="round"/>
<path d="M 480 420 L 545 420" fill="none" stroke="#ffffff" stroke-width="4.29" stroke-opacity="1.0" stroke-linecap="round" stroke-linejoin="round"/>
<path d="M 810 330 L 810 265 L 865 210" fill="none" stroke="#ffffff" stroke-width="4.29" stroke-opacity="1.0" stroke-linecap="round" stroke-linejoin="round"/>
<path d="M 810 660 L 880 660" fill="none" stroke="#ffffff" stroke-width="4.29" stroke-opacity="1.0" stroke-linecap="round" stroke-linejoin="round"/>
<path d="M 480 755 L 480 815 L 540 875" fill="none" stroke="#ffffff" stroke-width="4.29" stroke-opacity="1.0" stroke-linecap="round" stroke-linejoin="round"/>
<path d="M 600 755 L 600 815 L 540 875" fill="none" stroke="#ffffff" stroke-width="4.29" stroke-opacity="1.0" stroke-linecap="round" stroke-linejoin="round"/></g>
<g><circle cx="455" cy="200" r="31.2" fill="url(#padglow)"/><circle cx="455" cy="200" r="13.0" fill="#bfe6ff"/><circle cx="455" cy="200" r="8.1" fill="#ffffff"/><circle cx="865" cy="210" r="31.2" fill="url(#padglow)"/><circle cx="865" cy="210" r="13.0" fill="#bfe6ff"/><circle cx="865" cy="210" r="8.1" fill="#ffffff"/><circle cx="540" cy="875" r="31.2" fill="url(#padglow)"/><circle cx="540" cy="875" r="13.0" fill="#bfe6ff"/><circle cx="540" cy="875" r="8.1" fill="#ffffff"/><circle cx="545" cy="420" r="16.8" fill="url(#padglow)"/><circle cx="545" cy="420" r="7.0" fill="#bfe6ff"/><circle cx="545" cy="420" r="4.3" fill="#ffffff"/><circle cx="880" cy="660" r="16.8" fill="url(#padglow)"/><circle cx="880" cy="660" r="7.0" fill="#bfe6ff"/><circle cx="880" cy="660" r="4.3" fill="#ffffff"/><circle cx="290" cy="830" r="16.8" fill="url(#padglow)"/><circle cx="290" cy="830" r="7.0" fill="#bfe6ff"/><circle cx="290" cy="830" r="4.3" fill="#ffffff"/><circle cx="600" cy="542" r="16.8" fill="url(#padglow)"/><circle cx="600" cy="542" r="7.0" fill="#bfe6ff"/><circle cx="600" cy="542" r="4.3" fill="#ffffff"/><circle cx="810" cy="542" r="16.8" fill="url(#padglow)"/><circle cx="810" cy="542" r="7.0" fill="#bfe6ff"/><circle cx="810" cy="542" r="4.3" fill="#ffffff"/></g>
<g><polygon points="540,200 455,203.8 370,200 455,196.2" fill="#ffffff" fill-opacity="0.95"/><polygon points="455,285 458.8,200 455,115 451.2,200" fill="#ffffff" fill-opacity="0.95"/><polygon points="485.1,230.1 453.1,201.9 424.9,169.9 456.9,198.1" fill="#ffffff" fill-opacity="0.76"/><polygon points="424.9,230.1 453.1,198.1 485.1,169.9 456.9,201.9" fill="#ffffff" fill-opacity="0.76"/><circle cx="455" cy="200" r="8.5" fill="#ffffff"/><polygon points="937,210 865,213.2 793,210 865,206.8" fill="#ffffff" fill-opacity="0.95"/><polygon points="865,282 868.2,210 865,138 861.8,210" fill="#ffffff" fill-opacity="0.95"/><polygon points="890.5,235.5 863.4,211.6 839.5,184.5 866.6,208.4" fill="#ffffff" fill-opacity="0.76"/><polygon points="839.5,235.5 863.4,208.4 890.5,184.5 866.6,211.6" fill="#ffffff" fill-opacity="0.76"/><circle cx="865" cy="210" r="7.2" fill="#ffffff"/><polygon points="630,875 540,879.0 450,875 540,871.0" fill="#ffffff" fill-opacity="0.95"/><polygon points="540,965 544.0,875 540,785 536.0,875" fill="#ffffff" fill-opacity="0.95"/><polygon points="571.9,906.9 538.0,877.0 508.1,843.1 542.0,873.0" fill="#ffffff" fill-opacity="0.76"/><polygon points="508.1,906.9 538.0,873.0 571.9,843.1 542.0,877.0" fill="#ffffff" fill-opacity="0.76"/><circle cx="540" cy="875" r="9.0" fill="#ffffff"/><polygon points="542,470 480,472.8 418,470 480,467.2" fill="#ffffff" fill-opacity="0.95"/><polygon points="480,532 482.8,470 480,408 477.2,470" fill="#ffffff" fill-opacity="0.95"/><polygon points="501.9,491.9 478.6,471.4 458.1,448.1 481.4,468.6" fill="#ffffff" fill-opacity="0.76"/><polygon points="458.1,491.9 478.6,468.6 501.9,448.1 481.4,471.4" fill="#ffffff" fill-opacity="0.76"/><circle cx="480" cy="470" r="6.2" fill="#ffffff"/><polygon points="600,420 545,422.5 490,420 545,417.5" fill="#ffffff" fill-opacity="0.95"/><polygon points="545,475 547.5,420 545,365 542.5,420" fill="#ffffff" fill-opacity="0.95"/><polygon points="564.5,439.5 543.8,421.2 525.5,400.5 546.2,418.8" fill="#ffffff" fill-opacity="0.76"/><polygon points="525.5,439.5 543.8,418.8 564.5,400.5 546.2,421.2" fill="#ffffff" fill-opacity="0.76"/><circle cx="545" cy="420" r="5.5" fill="#ffffff"/><polygon points="358,330 290,333.1 222,330 290,326.9" fill="#ffffff" fill-opacity="0.95"/><polygon points="290,398 293.1,330 290,262 286.9,330" fill="#ffffff" fill-opacity="0.95"/><polygon points="314.1,354.1 288.5,331.5 265.9,305.9 291.5,328.5" fill="#ffffff" fill-opacity="0.76"/><polygon points="265.9,354.1 288.5,328.5 314.1,305.9 291.5,331.5" fill="#ffffff" fill-opacity="0.76"/><circle cx="290" cy="330" r="6.8" fill="#ffffff"/></g>
</g>
</svg>